<?xml version="1.0"?>
<svg xmlns="http://www.w3.org/2000/svg" xmlns:xlink="http://www.w3.org/1999/xlink" version="1.1" id="Capa_1" x="0px" y="0px" viewBox="0 0 512.022 512.022" style="enable-background:new 0 0 512.022 512.022;" xml:space="preserve" width="512px" height="512px"><g><script xmlns="" id="tinyhippos-injected" class="active-path" style="fill:#000000"/><g transform="translate(-1)">
	<g>
		<path d="M512.656,24.245c-0.912-3.012-3.407-5.277-6.493-5.895L415.198,0.176c-2.794-0.558-5.682,0.314-7.7,2.325l-26.036,25.963    l-9.456-2.58c-5.923-1.605-12.253,0.076-16.6,4.408L25.28,360.426c0,0-0.001,0.001-0.001,0.001    c-16.29,16.332-25.064,38.697-24.224,61.749c1.79,48.834,40.966,88.01,89.8,89.8c0.817,0.025,1.625,0.033,2.442,0.033    c22.123,0.181,43.394-8.486,59.098-24.058c0.035-0.033,0.07-0.066,0.105-0.1c0.034-0.034,0.071-0.066,0.105-0.1    c0.041-0.041,0.077-0.087,0.117-0.129c0.124-0.129,0.244-0.261,0.36-0.397c0.057-0.068,0.114-0.136,0.169-0.206    c0.115-0.145,0.224-0.294,0.33-0.446c0.044-0.063,0.089-0.126,0.131-0.19c0.118-0.18,0.228-0.366,0.333-0.556    c0.021-0.039,0.045-0.077,0.066-0.116c0.252-0.474,0.461-0.976,0.621-1.502c0.006-0.02,0.01-0.04,0.016-0.06    c0.057-0.192,0.112-0.384,0.156-0.581c0.233-1.067,24.259-107.3,70.5-153.542c0.002-0.002,0.003-0.003,0.005-0.005l215.47-215.47    c3.681-3.67,5.488-8.818,4.908-13.983l-0.308-2.775l65.042-65.042C512.747,30.526,513.568,27.257,512.656,24.245z M280.03,169.776    L280.03,169.776c0.667-0.001,1.324,0.084,1.964,0.234c0.182,0.055,0.367,0.097,0.552,0.139c1.341,0.408,2.576,1.142,3.584,2.152    l12.133,12.133c1.056,1.057,1.78,2.32,2.174,3.66c0.01,0.041,0.02,0.082,0.03,0.122c0.806,2.9,0.075,6.137-2.204,8.418l-54.6,54.6    c-3.368,3.362-8.823,3.362-12.192,0l-12.133-12.133c-3.367-3.37-3.367-8.83,0-12.2l54.592-54.6    C275.547,170.681,277.742,169.772,280.03,169.776z M310.33,172.367l-12.133-12.133c-0.009-0.009-0.018-0.016-0.027-0.025    l72.894-72.834l12.133,12.192l-72.83,72.838C310.354,172.393,310.343,172.38,310.33,172.367z M207.272,251.167l12.133,12.133    c0.01,0.01,0.02,0.019,0.03,0.029L79.843,402.922l-12.196-12.196l139.589-139.597    C207.248,251.142,207.259,251.155,207.272,251.167z M91.322,494.918c-39.776-1.542-71.666-33.433-73.208-73.208    c-0.55-15.406,4.253-30.526,13.591-42.792l29.971,29.974l12.129,12.133c0.009,0.009,0.019,0.016,0.028,0.025l24.239,24.242    c0.026,0.026,0.056,0.049,0.083,0.075l35.959,35.959C121.838,490.644,106.725,495.444,91.322,494.918z M213.338,317.959    c-0.003,0.003-0.004,0.005-0.007,0.008c-39.346,39.353-62.809,114.967-71.389,147.054l-50.033-50.033l144.22-144.22    c0.477,0.026,0.955,0.042,1.435,0.041c6.813,0.015,13.352-2.688,18.167-7.508l54.6-54.6c4.818-4.818,7.525-11.353,7.525-18.167    c0-0.482-0.017-0.961-0.044-1.44l77.453-77.46c6.667-6.686,6.667-17.506,0-24.192l-12.133-12.133    c-3.203-3.218-7.56-5.021-12.1-5.008h-0.017c-4.535-0.01-8.885,1.793-12.083,5.008l-77.678,77.678    c-6.942-0.321-13.987,2.095-19.388,7.247l-54.592,54.6c-5.371,5.384-7.858,12.553-7.469,19.594L55.58,378.659l-12.2-12.2    L367.522,42.351l56.333,15.391l4.958,44.742L213.338,317.959z M443.068,76.072l-2.246-20.222    c-0.759-6.985-5.73-12.787-12.517-14.608l-27.867-7.602l15.884-15.839l70.858,14.159L443.068,76.072z" data-original="#000000" class="active-path" fill="#000000"/>
	</g>
</g></g> </svg>
