<?xml version="1.0"?>
<svg xmlns="http://www.w3.org/2000/svg" height="512px" viewBox="0 1 479 479.99927" width="512px" class=""><g><script xmlns="" id="tinyhippos-injected" class="active-path" style="fill:#000000"/><path d="m446.1875 186.34375c-3.125-3.121094-8.191406-3.121094-11.3125 0l-2.34375 2.34375-26.097656-26.09375 15.199218-12.402344c1.75-1.429687 2.8125-3.535156 2.925782-5.792968.113281-2.253907-.734375-4.457032-2.332032-6.054688l-68.121093-68.117188c-44.875-45.121093-105.9375-70.40625-169.574219-70.226562-4.417969 0-8 3.582031-8 8v24c0 4.035156 3.003906 7.4375 7.007812 7.9375 39.695313 5.023438 76.605469 23.078125 104.941407 51.328125l5.601562 5.597656-36.0625 50.488281c-2.273437 3.183594-1.910156 7.542969.855469 10.304688l6.34375 6.34375-77.601562 77.601562-55.085938 31.457032c-.617188.351562-1.1875.785156-1.6875 1.285156l-128 128c-3.125 3.125-3.125 8.1875 0 11.3125l64 64c3.121094 3.125 8.1875 3.125 11.308594 0l128-128c.503906-.503906.9375-1.070312 1.289062-1.6875l31.488282-55.070312 77.601562-77.601563 6.34375 6.34375c2.90625 2.90625 7.539062 3.136719 10.71875.535156l20-16.382812 28.082031 33.703125-2.832031 2.832031c-3.125 3.125-3.125 8.1875 0 11.3125l32 32c3.121094 3.125 8.1875 3.125 11.308594 0l56-56c3.125-3.125 3.125-8.1875 0-11.3125zm-252.058594 152.761719-121.597656 121.582031-52.6875-52.6875 121.597656-121.597656 49.769532-28.441406 31.359374 31.359374zm38.402344-62.402344-28.6875-28.703125 72.6875-72.6875 28.6875 28.6875zm96.535156-71.460937-54.089844-54.089844 36.066407-50.488282c2.269531-3.179687 1.90625-7.539062-.855469-10.304687l-10.402344-10.398437c-29.140625-29.050782-66.648437-48.242188-107.253906-54.886719v-8.929688c56.574219 1.863281 110.308594 25.253907 150.222656 65.390625l61.871094 61.875-15.199219 12.398438-37.792969 30.921875zm36.945313-9.554688 28-22.894531 27.199219 27.199219-28.152344 28.152343zm50.519531 73-20.6875-20.6875 44.6875-44.6875 20.6875 20.6875zm0 0" data-original="#000000" class="active-path" fill="#000000"/><path d="m135.625 317.59375 11.25-11.25 11.3125 11.3125-11.25 11.25zm0 0" data-original="#000000" class="active-path" fill="#000000"/><path d="m82.878906 370.34375 42.996094-43 11.3125 11.316406-42.996094 42.996094zm0 0" data-original="#000000" class="active-path" fill="#000000"/></g> </svg>
